<?xml version="1.0" encoding="utf-8"?>
<!-- Generator: Adobe Illustrator 16.0.0, SVG Export Plug-In . SVG Version: 6.00 Build 0)  -->
<!DOCTYPE svg PUBLIC "-//W3C//DTD SVG 1.1//EN" "http://www.w3.org/Graphics/SVG/1.1/DTD/svg11.dtd">
<svg version="1.1" id="Layer_2" xmlns="http://www.w3.org/2000/svg" xmlns:xlink="http://www.w3.org/1999/xlink" x="0px" y="0px"
	 width="115px" height="115px" viewBox="0 0 115 115" enable-background="new 0 0 115 115" xml:space="preserve">
<g>
	<polyline fill="#da2810ab" points="3.5,93.5 3.5,3.5 111.5,3.5 111.5,111.5 93.5,93.5 30.5,93.5 	"/>
</g>
<g>
	<path d="M111.501,115c-0.911,0-1.807-0.355-2.476-1.025L92.05,97H66.5c-1.933,0-3.5-1.567-3.5-3.5s1.567-3.5,3.5-3.5h27
		c0.929,0,1.818,0.369,2.475,1.025L108,103.05V7H7v83h14.5c1.933,0,3.5,1.567,3.5,3.5S23.433,97,21.5,97h-18
		C1.567,97,0,95.433,0,93.5v-90C0,1.567,1.567,0,3.5,0h108c1.933,0,3.5,1.567,3.5,3.5v108c0,1.416-0.853,2.691-2.16,3.233
		C112.406,114.913,111.951,115,111.501,115z"/>
</g>
<g>
	<path d="M57.5,61h-27c-1.933,0-3.5-1.567-3.5-3.5s1.567-3.5,3.5-3.5h27c1.933,0,3.5,1.567,3.5,3.5S59.433,61,57.5,61z"/>
</g>
<g>
	<path d="M84.5,34h-54c-1.933,0-3.5-1.567-3.5-3.5s1.567-3.5,3.5-3.5h54c1.933,0,3.5,1.567,3.5,3.5S86.433,34,84.5,34z"/>
</g>
<g>
	<path d="M48.5,97h-9c-1.933,0-3.5-1.567-3.5-3.5s1.567-3.5,3.5-3.5h9c1.933,0,3.5,1.567,3.5,3.5S50.433,97,48.5,97z"/>
</g>
</svg>
