<?xml version="1.0"?>
<svg xmlns="http://www.w3.org/2000/svg" height="512px" viewBox="0 -20 512 512" width="512px"><path d="m256 0c-135.449219 0-256 92.375-256 217.988281 0 45.878907 16.289062 89.320313 47.234375 126.289063l-26.59375 102.683594c-3.945313 15.226562 10.523437 28.933593 25.566406 24.023437l135.671875-44.28125c23.96875 6.15625 48.871094 9.273437 74.121094 9.273437 135.535156 0 256-92.464843 256-217.988281 0-126.597656-121.757812-217.988281-256-217.988281zm0 395.976562c-23.703125 0-47.019531-3.160156-69.292969-9.386718-3.804687-1.0625-7.835937-.976563-11.59375.246094l-106.59375 34.792968 20.09375-77.578125c1.703125-6.578125-.050781-13.574219-4.660156-18.570312-28.753906-31.175781-43.953125-68.347657-43.953125-107.492188 0-98.144531 96.898438-177.992187 216-177.992187s216 79.847656 216 177.992187-96.898438 177.988281-216 177.988281zm25-177.992187c0 13.808594-11.191406 25-25 25s-25-11.191406-25-25c0-13.804687 11.191406-25 25-25s25 11.195313 25 25zm100 0c0 13.808594-11.191406 25-25 25s-25-11.191406-25-25c0-13.804687 11.191406-25 25-25s25 11.195313 25 25zm-200 0c0 13.808594-11.191406 25-25 25s-25-11.191406-25-25c0-13.804687 11.191406-25 25-25s25 11.195313 25 25zm0 0" fill="#FFFFFF"/></svg>
